<mxfile host="app.diagrams.net" modified="2023-01-25T15:56:40.511Z" agent="5.0 (Windows NT 10.0; Win64; x64) AppleWebKit/537.36 (KHTML, like Gecko) Chrome/109.0.0.0 Safari/537.36" etag="73ak_izf0KzXWvH-Qpva" version="20.8.10" type="github">
  <diagram name="第 1 页" id="VPZiB18nnhILlqS88p_2">
    <mxGraphModel dx="1052" dy="642" grid="1" gridSize="10" guides="1" tooltips="1" connect="1" arrows="1" fold="1" page="1" pageScale="1" pageWidth="827" pageHeight="1169" math="1" shadow="0">
      <root>
        <mxCell id="0" />
        <mxCell id="1" parent="0" />
        <mxCell id="QHHVyBg31WiNpmlo0UfJ-1" value="" style="endArrow=none;dashed=1;html=1;exitX=0.5;exitY=0;exitDx=0;exitDy=0;entryX=0.5;entryY=1;entryDx=0;entryDy=0;" edge="1" parent="1" source="QHHVyBg31WiNpmlo0UfJ-2" target="QHHVyBg31WiNpmlo0UfJ-13">
          <mxGeometry width="50" height="50" relative="1" as="geometry">
            <mxPoint x="279.9999999999999" y="190" as="sourcePoint" />
            <mxPoint x="300" y="280" as="targetPoint" />
            <Array as="points" />
          </mxGeometry>
        </mxCell>
        <mxCell id="QHHVyBg31WiNpmlo0UfJ-2" value="$$S_{pcf}\sim S_{cps},S_{pcf}\rightarrow S_{pcf}\prime&lt;br&gt;$$" style="rounded=0;whiteSpace=wrap;html=1;" vertex="1" parent="1">
          <mxGeometry x="365" y="280" width="170" height="30" as="geometry" />
        </mxCell>
        <mxCell id="QHHVyBg31WiNpmlo0UfJ-3" value="$$\exists&amp;nbsp;S_{cps}\prime&lt;br&gt;,&amp;nbsp;S_{cps} \\ 经过一步或多步转换&lt;br&gt;到达 S_{cps}\prime&lt;br&gt;$$" style="rounded=0;whiteSpace=wrap;html=1;" vertex="1" parent="1">
          <mxGeometry x="322.5" y="340" width="255" height="30" as="geometry" />
        </mxCell>
        <mxCell id="QHHVyBg31WiNpmlo0UfJ-4" value="$$S_{pcf}\prime\sim S_{cps}\prime&lt;br&gt;$$" style="rounded=0;whiteSpace=wrap;html=1;" vertex="1" parent="1">
          <mxGeometry x="365" y="400" width="170" height="30" as="geometry" />
        </mxCell>
        <mxCell id="QHHVyBg31WiNpmlo0UfJ-5" value="$$Comp_{1}(t_{pcf})=t_{cps},\\ t_{pcf}&lt;br&gt;\Downarrow B\Longrightarrow t_{cps}\Downarrow B&lt;br&gt;$$" style="rounded=0;whiteSpace=wrap;html=1;" vertex="1" parent="1">
          <mxGeometry x="306.25" y="460" width="287.5" height="30" as="geometry" />
        </mxCell>
        <mxCell id="QHHVyBg31WiNpmlo0UfJ-6" value="$$B=terminate\, n$$" style="rounded=0;whiteSpace=wrap;html=1;" vertex="1" parent="1">
          <mxGeometry x="310" y="520" width="130" height="30" as="geometry" />
        </mxCell>
        <mxCell id="QHHVyBg31WiNpmlo0UfJ-7" value="$$B=diverge$$" style="rounded=0;whiteSpace=wrap;html=1;" vertex="1" parent="1">
          <mxGeometry x="460" y="520" width="140" height="30" as="geometry" />
        </mxCell>
        <mxCell id="QHHVyBg31WiNpmlo0UfJ-8" style="edgeStyle=orthogonalEdgeStyle;rounded=0;orthogonalLoop=1;jettySize=auto;html=1;exitX=0.5;exitY=1;exitDx=0;exitDy=0;" edge="1" parent="1" source="QHHVyBg31WiNpmlo0UfJ-4" target="QHHVyBg31WiNpmlo0UfJ-4">
          <mxGeometry relative="1" as="geometry" />
        </mxCell>
        <mxCell id="QHHVyBg31WiNpmlo0UfJ-9" value="" style="endArrow=classicThin;html=1;strokeWidth=0.5;exitX=0.5;exitY=1;exitDx=0;exitDy=0;entryX=0.5;entryY=0;entryDx=0;entryDy=0;endFill=1;" edge="1" parent="1" source="QHHVyBg31WiNpmlo0UfJ-2" target="QHHVyBg31WiNpmlo0UfJ-3">
          <mxGeometry width="50" height="50" relative="1" as="geometry">
            <mxPoint x="390" y="450" as="sourcePoint" />
            <mxPoint x="440" y="400" as="targetPoint" />
          </mxGeometry>
        </mxCell>
        <mxCell id="QHHVyBg31WiNpmlo0UfJ-10" value="" style="endArrow=classicThin;html=1;strokeWidth=0.5;exitX=0.5;exitY=1;exitDx=0;exitDy=0;entryX=0.5;entryY=0;entryDx=0;entryDy=0;endFill=1;" edge="1" parent="1" source="QHHVyBg31WiNpmlo0UfJ-3" target="QHHVyBg31WiNpmlo0UfJ-4">
          <mxGeometry width="50" height="50" relative="1" as="geometry">
            <mxPoint x="415" y="320" as="sourcePoint" />
            <mxPoint x="390" y="340" as="targetPoint" />
          </mxGeometry>
        </mxCell>
        <mxCell id="QHHVyBg31WiNpmlo0UfJ-11" value="" style="endArrow=classicThin;html=1;strokeWidth=0.5;exitX=0.5;exitY=1;exitDx=0;exitDy=0;entryX=0.5;entryY=0;entryDx=0;entryDy=0;endFill=1;" edge="1" parent="1" source="QHHVyBg31WiNpmlo0UfJ-5" target="QHHVyBg31WiNpmlo0UfJ-6">
          <mxGeometry width="50" height="50" relative="1" as="geometry">
            <mxPoint x="390" y="410" as="sourcePoint" />
            <mxPoint x="455" y="430" as="targetPoint" />
          </mxGeometry>
        </mxCell>
        <mxCell id="QHHVyBg31WiNpmlo0UfJ-12" value="" style="endArrow=classicThin;html=1;strokeWidth=0.5;exitX=0.5;exitY=1;exitDx=0;exitDy=0;entryX=0.5;entryY=0;entryDx=0;entryDy=0;endFill=1;" edge="1" parent="1" source="QHHVyBg31WiNpmlo0UfJ-5" target="QHHVyBg31WiNpmlo0UfJ-7">
          <mxGeometry width="50" height="50" relative="1" as="geometry">
            <mxPoint x="465" y="540" as="sourcePoint" />
            <mxPoint x="395" y="560" as="targetPoint" />
          </mxGeometry>
        </mxCell>
        <mxCell id="QHHVyBg31WiNpmlo0UfJ-13" value="$$define\; S_{pcf}\sim&amp;nbsp;&lt;br&gt;S_{cps}&lt;br&gt;$$" style="rounded=0;whiteSpace=wrap;html=1;" vertex="1" parent="1">
          <mxGeometry x="350" y="220" width="200" height="30" as="geometry" />
        </mxCell>
        <mxCell id="QHHVyBg31WiNpmlo0UfJ-14" value="" style="endArrow=none;dashed=1;html=1;exitX=0.5;exitY=0;exitDx=0;exitDy=0;entryX=0.5;entryY=1;entryDx=0;entryDy=0;" edge="1" parent="1" source="QHHVyBg31WiNpmlo0UfJ-5" target="QHHVyBg31WiNpmlo0UfJ-4">
          <mxGeometry width="50" height="50" relative="1" as="geometry">
            <mxPoint x="460" y="290" as="sourcePoint" />
            <mxPoint x="660" y="250" as="targetPoint" />
            <Array as="points" />
          </mxGeometry>
        </mxCell>
      </root>
    </mxGraphModel>
  </diagram>
</mxfile>
